<svg id="visual" viewBox="0 0 900 600" width="900" height="600" xmlns="http://www.w3.org/2000/svg" xmlns:xlink="http://www.w3.org/1999/xlink" version="1.1"><g transform="translate(429.611643405525 307.00821651472467)"><path d="M106.3 -127.2C153.9 -111.8 219.6 -102.3 237.9 -71.3C256.2 -40.4 227 11.9 207.3 65.7C187.5 119.4 177.2 174.6 144.3 191.4C111.3 208.2 55.6 186.6 6.9 177.1C-41.9 167.7 -83.9 170.4 -116 153.4C-148.2 136.3 -170.6 99.5 -184.9 59.2C-199.1 19 -205.1 -24.8 -202.2 -75.6C-199.3 -126.4 -187.5 -184.1 -152.4 -203.5C-117.2 -222.9 -58.6 -204 -14.6 -183.9C29.4 -163.8 58.8 -142.6 106.3 -127.2" fill="#000000"></path></g></svg>