<svg id="visual" viewBox="0 0 900 600" width="900" height="600" xmlns="http://www.w3.org/2000/svg" xmlns:xlink="http://www.w3.org/1999/xlink" version="1.1"><g transform="translate(473.140240501304 312.41521222754386)"><path d="M113.7 -167.3C150.9 -129.4 187.2 -101 193.9 -66.3C200.7 -31.6 177.8 9.4 164.3 54.1C150.8 98.8 146.5 147.3 120.7 175.7C94.8 204.2 47.4 212.6 -4.1 218.3C-55.6 223.9 -111.3 226.8 -151.5 203.1C-191.8 179.3 -216.7 128.9 -230.7 77C-244.7 25.1 -247.9 -28.2 -222.3 -61.5C-196.8 -94.8 -142.5 -108.1 -100.6 -144.5C-58.8 -180.9 -29.4 -240.5 4.4 -246.5C38.2 -252.6 76.4 -205.2 113.7 -167.3" fill="#000000"></path></g></svg>